<mxfile host="www.draw.io" modified="2024-03-29T03:43:44.933Z" agent="Mozilla/5.0 (Windows NT 10.0; Win64; x64) AppleWebKit/537.36 (KHTML, like Gecko) Chrome/123.0.0.0 Safari/537.36" etag="61G8CVUDZQNOdHV_hcQz" version="24.2.0" type="device">
  <diagram name="Page-1" id="7XHMRDBfyTRppH8candR">
    <mxGraphModel dx="1103" dy="574" grid="1" gridSize="10" guides="1" tooltips="1" connect="1" arrows="1" fold="1" page="1" pageScale="1" pageWidth="827" pageHeight="1169" math="0" shadow="0">
      <root>
        <mxCell id="0" />
        <mxCell id="1" parent="0" />
        <mxCell id="Jl1u76-HGkEjbeYksgPm-4" value="" style="edgeStyle=orthogonalEdgeStyle;rounded=0;orthogonalLoop=1;jettySize=auto;html=1;" parent="1" source="Jl1u76-HGkEjbeYksgPm-1" target="Jl1u76-HGkEjbeYksgPm-3" edge="1">
          <mxGeometry relative="1" as="geometry" />
        </mxCell>
        <mxCell id="Jl1u76-HGkEjbeYksgPm-1" value="&lt;b&gt;&lt;font style=&quot;font-size: 16px;&quot;&gt;Input&lt;/font&gt;&lt;/b&gt;" style="rounded=0;whiteSpace=wrap;html=1;fillColor=#f5f5f5;fontColor=#333333;strokeColor=#666666;rotation=-90;" parent="1" vertex="1">
          <mxGeometry x="120" y="110" width="90" height="40" as="geometry" />
        </mxCell>
        <mxCell id="Jl1u76-HGkEjbeYksgPm-8" value="" style="edgeStyle=orthogonalEdgeStyle;rounded=0;orthogonalLoop=1;jettySize=auto;html=1;" parent="1" source="Jl1u76-HGkEjbeYksgPm-3" target="Jl1u76-HGkEjbeYksgPm-5" edge="1">
          <mxGeometry relative="1" as="geometry" />
        </mxCell>
        <mxCell id="Jl1u76-HGkEjbeYksgPm-3" value="&lt;b&gt;&lt;font style=&quot;font-size: 16px;&quot;&gt;Inception ResNet Block A&lt;/font&gt;&lt;/b&gt;" style="rounded=0;whiteSpace=wrap;html=1;fillColor=#f8cecc;strokeColor=#b85450;rotation=-90;" parent="1" vertex="1">
          <mxGeometry x="210" y="95" width="110" height="70" as="geometry" />
        </mxCell>
        <mxCell id="Jl1u76-HGkEjbeYksgPm-7" value="" style="edgeStyle=orthogonalEdgeStyle;rounded=0;orthogonalLoop=1;jettySize=auto;html=1;" parent="1" source="Jl1u76-HGkEjbeYksgPm-5" target="Jl1u76-HGkEjbeYksgPm-6" edge="1">
          <mxGeometry relative="1" as="geometry" />
        </mxCell>
        <mxCell id="Jl1u76-HGkEjbeYksgPm-5" value="&lt;span style=&quot;font-size: 16px;&quot;&gt;&lt;b&gt;Reduction Block A&lt;/b&gt;&lt;/span&gt;" style="rounded=0;whiteSpace=wrap;html=1;fillColor=#ffe6cc;strokeColor=#d79b00;rotation=-90;" parent="1" vertex="1">
          <mxGeometry x="320" y="95" width="110" height="70" as="geometry" />
        </mxCell>
        <mxCell id="Jl1u76-HGkEjbeYksgPm-11" value="" style="edgeStyle=orthogonalEdgeStyle;rounded=0;orthogonalLoop=1;jettySize=auto;html=1;" parent="1" source="Jl1u76-HGkEjbeYksgPm-6" target="Jl1u76-HGkEjbeYksgPm-9" edge="1">
          <mxGeometry relative="1" as="geometry" />
        </mxCell>
        <mxCell id="Jl1u76-HGkEjbeYksgPm-6" value="&lt;span style=&quot;font-size: 16px;&quot;&gt;&lt;b&gt;2 * Inception ResNet Blocks B&lt;/b&gt;&lt;/span&gt;" style="rounded=0;whiteSpace=wrap;html=1;fillColor=#f8cecc;strokeColor=#b85450;rotation=-90;" parent="1" vertex="1">
          <mxGeometry x="440" y="95" width="110" height="70" as="geometry" />
        </mxCell>
        <mxCell id="Jl1u76-HGkEjbeYksgPm-12" value="" style="edgeStyle=orthogonalEdgeStyle;rounded=0;orthogonalLoop=1;jettySize=auto;html=1;" parent="1" source="Jl1u76-HGkEjbeYksgPm-9" target="Jl1u76-HGkEjbeYksgPm-10" edge="1">
          <mxGeometry relative="1" as="geometry" />
        </mxCell>
        <mxCell id="Jl1u76-HGkEjbeYksgPm-9" value="&lt;span style=&quot;font-size: 16px;&quot;&gt;&lt;b&gt;Reduction Block B&lt;/b&gt;&lt;/span&gt;" style="rounded=0;whiteSpace=wrap;html=1;fillColor=#fff2cc;strokeColor=#d6b656;rotation=-90;" parent="1" vertex="1">
          <mxGeometry x="560" y="95" width="110" height="70" as="geometry" />
        </mxCell>
        <mxCell id="Jl1u76-HGkEjbeYksgPm-14" value="" style="edgeStyle=orthogonalEdgeStyle;rounded=0;orthogonalLoop=1;jettySize=auto;html=1;" parent="1" source="Jl1u76-HGkEjbeYksgPm-10" target="Jl1u76-HGkEjbeYksgPm-13" edge="1">
          <mxGeometry relative="1" as="geometry" />
        </mxCell>
        <mxCell id="Jl1u76-HGkEjbeYksgPm-10" value="&lt;span style=&quot;font-size: 16px;&quot;&gt;&lt;b&gt;Inception ResNet Block C&lt;/b&gt;&lt;/span&gt;" style="rounded=0;whiteSpace=wrap;html=1;fillColor=#f8cecc;strokeColor=#b85450;rotation=-90;" parent="1" vertex="1">
          <mxGeometry x="670" y="95" width="110" height="70" as="geometry" />
        </mxCell>
        <mxCell id="Jl1u76-HGkEjbeYksgPm-16" value="" style="edgeStyle=orthogonalEdgeStyle;rounded=0;orthogonalLoop=1;jettySize=auto;html=1;" parent="1" source="Jl1u76-HGkEjbeYksgPm-13" target="Jl1u76-HGkEjbeYksgPm-15" edge="1">
          <mxGeometry relative="1" as="geometry" />
        </mxCell>
        <mxCell id="Jl1u76-HGkEjbeYksgPm-13" value="&lt;span style=&quot;font-size: 16px;&quot;&gt;&lt;b&gt;Dropout&lt;/b&gt;&lt;/span&gt;" style="rounded=0;whiteSpace=wrap;html=1;fillColor=#f5f5f5;strokeColor=#666666;rotation=-90;fontColor=#333333;" parent="1" vertex="1">
          <mxGeometry x="782.5" y="102.5" width="110" height="55" as="geometry" />
        </mxCell>
        <mxCell id="Jl1u76-HGkEjbeYksgPm-18" value="" style="edgeStyle=orthogonalEdgeStyle;rounded=0;orthogonalLoop=1;jettySize=auto;html=1;" parent="1" source="Jl1u76-HGkEjbeYksgPm-15" target="Jl1u76-HGkEjbeYksgPm-17" edge="1">
          <mxGeometry relative="1" as="geometry" />
        </mxCell>
        <mxCell id="Jl1u76-HGkEjbeYksgPm-15" value="&lt;span style=&quot;font-size: 16px;&quot;&gt;&lt;b&gt;Global Average Pooling&lt;/b&gt;&lt;/span&gt;" style="rounded=0;whiteSpace=wrap;html=1;fillColor=#e1d5e7;strokeColor=#9673a6;rotation=-90;" parent="1" vertex="1">
          <mxGeometry x="880" y="100" width="122.5" height="60" as="geometry" />
        </mxCell>
        <mxCell id="Jl1u76-HGkEjbeYksgPm-17" value="&lt;span style=&quot;font-size: 16px;&quot;&gt;&lt;b&gt;Output(Softmax)&lt;/b&gt;&lt;/span&gt;" style="rounded=0;whiteSpace=wrap;html=1;fillColor=#f5f5f5;strokeColor=#666666;rotation=-90;fontColor=#333333;" parent="1" vertex="1">
          <mxGeometry x="975" y="100" width="132.5" height="60" as="geometry" />
        </mxCell>
      </root>
    </mxGraphModel>
  </diagram>
</mxfile>
